<svg width="105" height="109" viewBox="0 0 105 109" fill="none" xmlns="http://www.w3.org/2000/svg">
<path d="M54.4755 55.4669C47.7473 49.6671 41.9475 54.5076 31.9301 54.5608C17.3779 54.8988 14.1255 63.3499 18.7226 69.7664C23.1538 75.9148 31.785 74.1283 37.7906 79.2677C43.7962 84.4071 44.3927 94.511 50.8593 97.8569C57.3259 101.203 63.8595 95.5175 60.6198 79.6173C58.2942 68.7489 60.9788 61.4108 54.4755 55.4669Z" fill="#FFA800"/>
<path d="M41.6906 36.3211C41.9666 44.3834 38.1686 50.937 33.3609 50.2731C28.5532 49.6091 24.24 42.6361 24.0231 34.1614C23.7472 26.0991 27.5452 19.5454 32.3529 20.2094C37.1605 20.8733 41.2488 27.9905 41.6906 36.3211Z" fill="#FFA800"/>
<path d="M73.9933 64.6795C66.8185 66.2816 62.5229 72.0307 64.2185 77.3107C65.914 82.5907 73.0553 85.5041 80.0643 83.6338C87.2391 82.0317 91.5348 76.2826 89.8392 71.0027C88.3095 65.9909 81.1682 63.0774 73.9933 64.6795Z" fill="#FFA800"/>
<path d="M64.7448 36.5265C61.4444 43.8847 54.981 47.6525 50.3026 44.6586C45.6241 41.6648 44.4006 33.0862 47.701 25.728C51.0013 18.3697 57.4647 14.602 62.1432 17.5958C66.5967 20.7338 67.8792 28.9001 64.7448 36.5265Z" fill="#FFA800"/>
<path d="M68.1918 39.5603C62.7238 44.9372 60.9867 52.7917 64.8134 57.4549C68.4741 61.85 75.9217 61.1966 81.6147 55.6756C87.0828 50.2987 88.8199 42.4442 84.9932 37.781C81.3324 33.3859 73.6599 34.1834 68.1918 39.5603Z" fill="#FFA800"/>
</svg>
