<svg width="94" height="86" viewBox="0 0 94 86" fill="none" xmlns="http://www.w3.org/2000/svg">
<path d="M48.6886 41.2113C40.7865 45.2689 43.0945 52.4621 39.3818 61.7661C34.2299 75.3801 40.841 81.5683 48.5143 79.7174C55.8767 77.9196 57.4625 69.2493 64.4811 65.6134C71.4997 61.9776 81.0881 65.2192 86.6176 60.4826C92.1471 55.7459 89.3317 47.5554 73.3787 44.5865C62.4325 42.6603 56.6397 37.4164 48.6886 41.2113Z" fill="#FFAA00"/>
<path d="M26.1428 45.8702C33.7186 48.6423 38.3662 54.6235 35.9453 58.8299C33.5244 63.0363 25.442 64.415 17.5062 61.4334C9.93033 58.6613 5.28274 52.68 7.70363 48.4736C10.1245 44.2672 18.2561 43.1511 26.1428 45.8702Z" fill="#FFAA00"/>
<path d="M64.5568 26.5821C63.3471 33.8334 67.0622 39.9737 72.5924 40.3851C78.1227 40.7966 83.5048 35.2722 84.4036 28.0739C85.6133 20.8226 81.8983 14.6823 76.3681 14.2708C71.1487 13.8064 65.7665 19.3308 64.5568 26.5821Z" fill="#FFAA00"/>
<path d="M34.9912 24.5807C40.5714 30.4029 41.636 37.8081 37.1043 41.0198C32.5726 44.2315 24.1625 42.1436 18.5823 36.3215C13.0021 30.4994 11.9375 23.0941 16.4692 19.8824C21.05 16.9333 29.1002 18.8116 34.9912 24.5807Z" fill="#FFAA00"/>
<path d="M39.0975 22.5253C42.0273 29.6125 48.6544 34.1722 54.4135 32.3769C59.8616 30.6346 62.0531 23.4868 59.0742 16.1371C56.1444 9.04999 49.5173 4.4903 43.7582 6.28557C38.3101 8.02781 36.1678 15.4382 39.0975 22.5253Z" fill="#FFAA00"/>
</svg>
